<svg width="16" height="16" viewBox="0 0 16 16" fill="none" xmlns="http://www.w3.org/2000/svg">
<path d="M3.58114 15.6764C3.40584 15.6764 3.23177 15.6217 3.0832 15.5143C2.80646 15.3137 2.67719 14.969 2.75251 14.6364L3.78183 10.1022L0.291017 7.04082C0.0344181 6.81682 -0.0636068 6.46207 0.0417426 6.13748C0.147092 5.81349 0.43372 5.58412 0.773085 5.55275L5.39186 5.13342L7.21795 0.859999C7.3526 0.546026 7.65925 0.343262 7.99996 0.343262C8.34066 0.343262 8.64731 0.546026 8.78196 0.859266L10.6081 5.13342L15.2261 5.55275C15.5662 5.58339 15.8528 5.81349 15.9582 6.13748C16.0635 6.46146 15.9661 6.81682 15.7095 7.04082L12.2187 10.1016L13.248 14.6356C13.3235 14.969 13.1941 15.3137 12.9174 15.5137C12.6414 15.7137 12.2734 15.729 11.9827 15.5543L7.99996 13.1743L4.01719 15.5557C3.88254 15.6356 3.73251 15.6764 3.58114 15.6764ZM7.99996 12.149C8.15133 12.149 8.30123 12.1896 8.436 12.2696L12.1948 14.5177L11.2233 10.2382C11.154 9.9336 11.2574 9.61559 11.4927 9.40953L14.7888 6.51884L10.428 6.12283C10.114 6.09414 9.844 5.89675 9.72131 5.60743L7.99996 1.57462L6.27652 5.60805C6.15518 5.89541 5.88515 6.0928 5.57191 6.12149L1.21047 6.51749L4.50646 9.40819C4.74255 9.61486 4.84582 9.93225 4.77587 10.2376L3.80515 14.517L7.56391 12.2696C7.69856 12.1896 7.84858 12.149 7.99996 12.149ZM5.35658 5.21607C5.35658 5.21607 5.35658 5.2168 5.35584 5.21741L5.35658 5.21607ZM10.642 5.21411L10.6427 5.21546C10.6427 5.21472 10.6427 5.21472 10.642 5.21411Z" fill="#242424"/>
</svg>
