<svg width="512" height="512" viewBox="0 0 512 512" fill="none" xmlns="http://www.w3.org/2000/svg">
<g clip-path="url(#clip0_118_1846)">
<mask id="mask0_118_1846" style="mask-type:luminance" maskUnits="userSpaceOnUse" x="-128" y="0" width="640" height="529">
<path d="M-0.0195312 0H511.902V511.922H-0.0195312V0Z" fill="white"/>
<path d="M348.83 0H-76.395C-104.896 0 -128 23.1043 -128 51.605V476.83C-128 505.331 -104.896 528.435 -76.395 528.435H348.83C377.331 528.435 400.435 505.331 400.435 476.83V51.605C400.435 23.1043 377.331 0 348.83 0Z" fill="white"/>
</mask>
<g mask="url(#mask0_118_1846)">
<path fill-rule="evenodd" clip-rule="evenodd" d="M-128 0H639.882V511.922H-128V0Z" fill="#165D31"/>
<path fill-rule="evenodd" clip-rule="evenodd" d="M65.5188 145.113C64.6931 157.086 63.5578 178.141 73.7756 180.308C86.0575 181.443 79.2457 159.46 83.6837 155.538C84.6126 153.473 86.1608 153.473 86.264 156.054V174.631C86.1608 180.824 90.0827 182.475 93.179 183.817C96.4818 183.507 98.546 183.611 99.8877 186.707L101.333 219.012C101.333 219.012 108.867 221.076 109.177 200.847C109.589 188.978 106.803 178.966 108.454 176.696C108.454 174.425 111.344 174.322 113.408 175.354C116.608 177.624 118.053 180.514 123.007 179.276C130.644 177.212 135.186 173.496 135.392 167.716C135.129 162.024 133.944 156.412 131.883 151.1C132.192 150.067 130.335 147.487 130.747 146.455C132.089 148.519 134.153 148.416 134.669 146.455C133.328 142.12 131.367 138.095 128.064 136.34C125.381 133.967 121.459 134.483 120.014 139.437C119.844 145.943 122.045 152.288 126.206 157.292C127.504 160.097 128.038 163.194 127.754 166.271C125.587 167.613 123.42 166.994 121.562 165.136C121.562 165.136 115.472 160.492 115.472 159.563C117.124 149.242 115.885 148.106 114.956 145.217C114.337 141.295 112.479 140.056 110.931 137.373C109.383 135.721 107.422 135.721 106.39 137.373C103.706 142.017 104.945 151.925 106.906 156.363C108.351 160.492 110.415 163.072 109.383 163.072C108.557 165.342 106.906 164.826 105.667 162.143C104.136 156.458 103.406 150.587 103.5 144.7C102.984 140.056 102.468 130.251 99.3716 127.774C97.5139 125.297 94.7272 126.536 93.7983 128.806C93.5372 133.28 93.6408 137.767 94.1079 142.223C96.1721 149.448 96.7914 156.054 97.8235 163.588C98.1331 173.703 91.9405 168.026 92.2501 162.969C93.6951 156.466 93.2822 146.145 92.0437 143.565C91.0116 140.985 89.8763 140.366 87.5025 140.779C85.4383 140.572 80.5874 145.939 79.2457 155.021C79.2457 155.021 78.0072 159.666 77.4911 163.691C76.7687 168.336 73.7756 171.638 71.6081 163.072C69.7504 156.879 68.6151 141.501 65.5188 145.113Z" fill="white"/>
<path fill-rule="evenodd" clip-rule="evenodd" d="M98.9587 194.241L66.9636 209.62C67.2733 202.395 82.1355 189.184 92.2501 188.978C98.8555 189.184 97.2042 191.558 98.9587 194.138V194.241Z" fill="white"/>
<path fill-rule="evenodd" clip-rule="evenodd" d="M93.3855 204.253C76.4591 247.704 132.812 253.794 139.108 206.007C139.727 204.046 142.204 202.085 142.514 205.285C141.172 248.633 98.9589 251.523 91.7342 237.899C89.9796 234.803 89.4636 227.578 89.2571 223.243C88.225 214.78 83.6838 218.083 83.0645 226.546C82.3421 231.191 82.4453 232.532 82.4453 237.074C84.7159 271.133 139.211 256.477 148.087 228.301C152.731 212.716 147.261 201.156 149.841 201.156C155.208 207.039 162.846 201.982 164.497 199.918C165.22 198.886 166.974 198.267 168.213 199.608C172.341 202.705 179.876 201.156 181.424 195.893C182.249 190.629 182.972 185.262 183.178 179.689C179.772 180.721 177.192 181.443 176.986 182.785L176.263 187.533C175.954 188.978 172.96 189.081 172.857 187.12C171.516 181.237 166.149 180.411 162.846 189.597C160.678 191.455 156.653 191.661 156.24 189.081C156.756 182.888 154.279 182.063 149.325 184.953L144.474 148.829C146.539 148.829 148.5 150.274 150.357 147.9C148.293 141.398 143.855 128.29 141.481 127.258C140.243 125.813 139.314 126.742 137.766 127.052C135.082 127.877 132.605 130.148 133.431 134.586L141.688 186.397C142.101 188.565 140.243 191.558 137.869 191.248C133.844 188.462 132.812 182.992 126 183.198C120.943 183.198 115.266 188.668 114.647 193.932C113.718 198.06 113.408 202.601 114.647 206.214C118.053 210.342 122.284 210.033 126 209C128.993 207.762 131.47 204.769 132.605 205.491C133.328 206.42 132.709 216.328 118.259 224.069C109.59 227.991 102.571 228.817 98.8557 221.695C96.5851 217.257 99.0621 200.331 93.3855 204.15V204.253Z" fill="white"/>
<path fill-rule="evenodd" clip-rule="evenodd" d="M164.91 159.975C168.316 158.84 184.313 140.366 184.313 140.366L181.94 138.508C181.011 137.682 181.114 136.96 181.94 136.134C185.862 133.863 184.623 128.703 182.559 126.432C181.213 125.76 179.729 125.41 178.224 125.41C176.719 125.41 175.235 125.76 173.889 126.432C171.103 129.219 170.483 133.45 172.651 136.134C174.715 137.166 176.986 139.23 175.541 140.469C168.935 147.487 150.977 159.563 153.041 160.079C153.454 160.595 164.6 160.595 164.91 160.079V159.975ZM67.9958 224.998C62.0096 234.596 61.4936 248.942 64.8995 253.174C66.5509 255.238 69.4407 256.064 71.6081 255.445C75.4269 253.793 77.0783 246.156 76.1494 243.369C74.9109 241.305 73.8788 241.098 72.6402 242.75C69.9568 248.117 68.8215 244.401 68.6151 241.408C68.2022 235.732 68.7183 230.365 69.3375 226.236C70.06 222.005 69.3375 223.243 67.9958 224.998ZM325.092 209.516C319.312 197.028 311.262 184.643 308.682 179.895C300.898 167.569 292.635 155.553 283.911 143.875C277.719 136.444 294.129 146.971 281.847 132.212C277.202 128.084 276.893 127.98 272.971 124.678C271.01 123.233 266.262 120.756 265.437 124.884C265.026 127.843 265.166 130.852 265.849 133.76C266.262 135.824 269.255 139.23 270.803 141.294C290.413 167.613 307.856 194.344 324.576 227.784C327.259 226.546 326.64 211.684 325.092 209.516Z" fill="white"/>
<path fill-rule="evenodd" clip-rule="evenodd" d="M299.599 251.523C298.464 252.865 302.386 258.335 307.546 258.335C316.216 257.303 323.75 252.452 330.768 239.757C332.626 236.661 335.929 230.468 336.032 225.411C336.755 196.512 334.587 174.012 330.252 153.164C330.046 151.1 330.252 148.623 330.562 148.003C331.078 147.384 332.936 148.003 333.968 146.455C335.413 144.907 330.046 132.419 327.053 127.671C325.918 125.503 325.505 124.059 323.75 127.877C321.789 130.974 320.654 136.444 320.654 141.501C324.782 169.987 326.124 194.964 328.807 223.347C329.014 226.133 328.601 230.158 326.743 231.707C319.194 240.153 309.944 246.906 299.599 251.523ZM416.02 251.42C409.827 254.929 409.827 259.057 414.885 259.264C423.451 258.232 433.669 257.509 440.687 246.878C442.545 243.885 444.815 235.835 444.919 230.984C445.538 202.085 444.506 180.411 440.171 159.563C439.965 157.499 439.036 152.854 439.345 152.235C439.965 150.79 442.751 152.338 443.783 150.687C445.228 149.242 436.559 137.992 433.462 133.141C432.327 131.077 431.914 129.632 430.16 133.451C428.199 136.547 427.579 142.12 428.302 146.971C432.946 177.934 436.352 201.156 436.972 228.507C436.662 231.191 436.559 232.635 435.32 235.835C432.637 239.344 429.644 243.679 426.754 245.743C423.967 247.807 417.981 249.872 416.02 251.42Z" fill="white"/>
<path fill-rule="evenodd" clip-rule="evenodd" d="M420.664 223.656V204.769C420.585 200.062 419.53 195.423 417.568 191.145C415.71 187.017 416.846 183.817 416.02 179.379C415.194 175.044 415.401 168.439 414.162 163.278C413.749 161.214 412.717 154.815 413.13 154.196C413.543 152.751 415.504 154.196 416.433 152.544C417.878 150.996 411.479 134.483 408.279 129.838C407.144 127.774 405.08 128.393 402.396 131.902C400.022 134.07 400.951 139.23 401.88 144.081C408.073 176.386 412.614 205.698 411.685 236.351C411.376 239.034 420.768 228.61 420.664 223.656ZM374.942 183.611C371.124 183.611 362.97 175.973 360.493 171.638C360.135 170.593 359.997 169.486 360.086 168.385C360.174 167.284 360.489 166.213 361.009 165.239C362.454 164.207 364.725 163.175 366.376 164.207C366.376 164.207 368.027 166.684 367.718 166.994C369.782 168.026 370.814 167.407 371.02 166.478C371.124 165.033 370.298 164.104 370.298 162.349C371.33 157.911 376.491 157.189 378.348 160.079C379.793 161.833 380.309 165.549 380.516 168.129C380.516 169.368 378.452 167.819 377.213 168.129C376.078 168.542 375.768 169.884 375.665 171.122C375.458 174.425 375.046 179.689 374.942 183.507V183.611ZM303.108 231.706C304.14 221.798 302.799 204.356 302.695 198.576C302.282 184.849 300.012 158.324 298.98 153.989C297.741 145.629 302.386 154.918 301.766 150.067C300.218 141.811 295.574 136.031 290.207 128.393C288.452 126.019 288.556 125.503 285.769 129.012C282.879 135.824 285.459 140.469 286.182 145.733C290.104 162.969 292.374 178.76 293.406 194.448C294.563 210.765 294.701 227.138 293.819 243.472C296.812 243.679 301.56 238.725 303.108 231.706Z" fill="white"/>
<path fill-rule="evenodd" clip-rule="evenodd" d="M433.978 215.915C427.063 204.459 416.742 191.971 413.956 187.326C404.714 174.353 395.006 161.719 384.85 149.448C376.284 140.469 388.772 148.003 383.199 141.088C378.451 135.928 377.006 134.276 373.084 131.18C371.02 129.838 369.782 127.361 369.163 131.593C368.853 135.308 368.646 139.643 368.853 142.843C368.853 144.597 370.711 147.797 372.259 149.758C392.901 175.251 415.607 201.363 433.875 234.08C436.455 232.635 435.63 217.98 433.875 215.915H433.978Z" fill="white"/>
<path fill-rule="evenodd" clip-rule="evenodd" d="M122.594 194.654C122.078 195.583 120.943 196.718 121.355 197.75C122.181 198.783 122.8 199.092 124.039 199.195C125.071 199.195 126.722 199.402 127.032 198.783C127.404 198.328 127.648 197.782 127.739 197.201C127.829 196.621 127.764 196.026 127.548 195.48C126.516 192.59 123.213 193.622 122.594 194.654Z" fill="#165D31"/>
<path fill-rule="evenodd" clip-rule="evenodd" d="M354.197 362.577C363.383 362.886 369.369 362.99 377.523 363.919L387.018 362.886C397.649 361.854 398.165 378.058 398.165 378.058C398.061 387.554 394.346 387.966 389.701 388.999C387.018 389.411 385.573 387.45 384.231 385.386C382.477 386.109 380.103 386.212 377.11 385.799C373.291 385.593 369.472 385.593 365.757 385.283C361.628 384.973 359.461 385.799 355.436 385.386C354.507 386.728 353.371 388.482 350.998 387.966C348.933 387.76 346.456 381.877 347.179 377.542C348.624 374.343 348.211 375.375 348.108 373.93C310.539 373.001 272.764 371.35 235.918 371.866C207.02 371.866 178.637 373.104 150.254 374.343C135.082 374.136 123.42 371.659 115.472 359.893C116.195 359.893 154.176 362.164 165.22 361.441C185.862 361.132 204.543 359.48 225.494 358.861C266.778 359.584 307.546 359.584 348.83 362.474C344.908 359.79 344.702 353.391 350.894 351.843C351.307 351.533 351.617 354.939 352.546 354.939C357.293 354.63 355.229 361.132 354.197 362.577ZM188.648 135.205C182.456 153.06 192.157 172.567 198.969 170.709C203.923 172.774 207.02 163.381 209.084 153.164C210.426 150.274 211.458 149.964 212.18 151.409C211.974 165.033 213.212 168.026 216.721 172.154C218.741 173.957 221.338 174.979 224.044 175.035C226.75 175.092 229.387 174.18 231.48 172.464L237.57 166.271C238.912 164.93 240.666 164.826 242.627 166.065C244.485 167.82 244.175 170.709 248.2 172.774C251.503 174.115 258.728 173.083 260.379 170.193C262.547 166.375 263.166 165.033 264.198 163.588C265.746 161.524 268.43 162.349 268.43 163.072C268.223 164.207 266.675 165.446 267.707 167.51C269.565 168.955 270.081 168.026 271.216 167.716C275.138 165.859 278.131 157.189 278.131 157.189C278.235 154.093 276.48 154.299 275.345 154.918L272.248 157.086C270.184 157.395 266.469 158.634 264.611 155.744C262.753 152.338 262.65 147.487 261.205 143.978C261.205 143.772 258.728 138.508 261.102 138.198C262.237 138.405 264.817 139.024 265.23 136.96C266.469 134.896 262.547 129.013 259.863 126.019C257.593 123.542 254.29 123.233 251.194 125.813C249.129 127.877 249.336 129.941 248.923 132.109C248.566 133.615 248.567 135.183 248.925 136.689C249.284 138.194 249.99 139.595 250.987 140.778C253.155 145.01 257.18 150.48 255.838 158.324C255.838 158.324 253.464 161.937 249.439 161.42C247.788 161.008 245.104 160.388 243.659 149.655C242.627 141.501 243.866 130.148 240.46 124.884C239.221 121.581 238.396 118.485 235.299 124.058C234.474 126.123 230.964 129.425 233.441 136.237C235.803 142.236 236.515 148.757 235.506 155.125C234.061 157.292 233.751 158.118 231.79 160.285C229.21 163.072 226.32 162.349 224.153 161.317C222.088 159.976 220.437 159.253 219.508 154.815C219.715 147.797 220.024 136.34 218.786 133.863C216.928 130.148 213.832 131.49 212.49 132.625C206.501 139.266 202.496 147.455 200.93 156.26C199.176 161.937 197.318 160.388 195.976 158.015C192.777 154.918 192.57 131.283 188.648 135.205Z" fill="white"/>
<path fill-rule="evenodd" clip-rule="evenodd" d="M207.432 174.115C210.322 172.051 208.981 170.709 213.212 174.941C218.659 184.518 221.837 195.216 222.501 206.213C222.192 208.794 224.049 210.342 224.875 209.826C225.288 203.84 240.047 195.376 253.464 194.138C255.528 193.725 254.496 189.803 254.806 187.739C253.98 180.308 258.934 173.496 266.056 172.98C275.551 174.425 278.751 179.482 278.957 187.223C277.925 202.188 262.34 204.768 253.567 205.801C252.226 206.42 251.71 207.039 253.567 207.762L290.207 207.865L292.065 208.897C292.271 209.929 291.549 209.103 290 211.477C288.452 213.851 286.491 219.424 286.388 223.037C275.404 226.243 264.136 228.386 252.742 229.436C248.82 231.5 246.859 234.183 247.581 237.176C248.923 240.582 257.799 243.885 257.799 244.091C259.45 245.124 261.411 247.601 257.283 252.555C239.428 251.832 225.597 244.195 220.85 233.461C219.405 232.429 217.753 233.461 216.825 234.906C210.611 244.458 201.652 251.906 191.125 256.27C184.004 258.025 176.779 255.238 173.373 250.594C171.103 247.91 171.206 245.02 170.277 244.401C166.458 246.052 133.534 260.089 137.766 253.587C145.713 244.917 159.646 238.621 171.825 230.158C172.857 227.371 174.405 217.773 179.256 214.677C179.463 214.677 178.43 220.25 178.534 222.624C178.534 224.585 178.43 225.307 178.843 224.791C179.669 224.275 194.531 212.612 195.667 209C197.111 206.936 196.079 201.775 196.079 201.569C193.396 194.344 189.474 193.828 188.029 190.216C186.687 185.468 187.307 180.101 189.99 178.553C192.364 176.386 195.151 176.592 197.834 178.966C200.93 181.649 203.511 186.913 204.336 190.835C203.82 192.383 200.414 189.803 199.176 190.629C201.24 192.693 202.272 195.273 202.994 198.369C205.059 206.626 204.336 209.723 202.478 215.089C195.873 228.92 187.41 233.151 179.979 238.209C179.772 238.312 179.669 241.821 182.456 243.679C183.488 244.711 187.307 245.124 191.745 243.679C201.398 238.349 209.208 230.215 214.141 220.353C215.483 212.922 213.625 205.078 211.664 198.266C209.414 192.833 207.349 187.325 205.472 181.753C205.265 177.624 205.575 176.179 207.536 174.115H207.432ZM111.654 135.515C115.782 137.476 123.729 136.547 123.42 129.838L123.213 126.639C122.387 124.574 120.014 125.09 119.498 127.258C119.291 127.877 119.807 129.012 119.188 129.322C118.775 129.632 117.433 129.425 117.537 127.567C117.537 126.948 117.124 126.329 116.814 125.916C116.504 125.813 116.401 125.71 115.885 125.71C115.266 125.71 115.369 125.916 114.956 126.432L114.647 127.98C114.647 128.703 114.337 128.909 113.821 129.012C113.305 129.012 113.408 129.012 112.995 128.806C112.686 128.496 112.376 128.393 112.376 127.877L112.17 126.226C111.895 125.921 111.535 125.706 111.138 125.606C108.764 125.606 108.661 128.29 108.764 129.322C108.557 129.425 108.454 134.173 111.654 135.515Z" fill="white"/>
<path fill-rule="evenodd" clip-rule="evenodd" d="M235.093 187.739C239.221 189.803 249.336 188.565 246.859 182.062L246.652 178.966C245.827 176.902 243.556 177.418 242.937 179.482C242.833 180.101 243.246 181.237 242.627 181.546C242.317 181.959 240.976 181.753 240.976 179.895C240.976 179.276 240.563 178.656 240.253 178.244C240.047 178.037 239.84 178.037 239.324 178.037C238.808 178.037 238.808 178.14 238.499 178.656L238.189 180.205C238.086 180.927 237.776 181.237 237.363 181.237C236.744 181.237 236.951 181.237 236.434 181.03C236.228 180.721 235.815 180.617 235.815 180.101C235.815 179.585 235.815 178.76 235.609 178.45C235.402 178.14 234.99 178.037 234.577 177.934C232.306 177.934 232.1 180.514 232.203 181.546C232.1 181.753 231.996 186.397 235.093 187.739ZM307.133 166.065C311.262 168.129 319.209 167.2 318.899 160.491L318.693 157.292C317.867 155.228 315.493 155.744 314.977 157.808C314.771 158.53 315.287 159.563 314.668 159.872C314.255 160.285 312.913 160.079 313.016 158.221C313.016 157.602 312.5 156.982 312.294 156.569C311.984 156.466 311.881 156.363 311.262 156.363C310.746 156.363 310.746 156.569 310.436 157.085L310.126 158.634C310.126 159.253 309.817 159.563 309.301 159.666C308.785 159.666 308.888 159.666 308.475 159.356C308.165 159.15 307.856 158.943 307.856 158.53C307.856 158.014 307.753 157.189 307.546 156.776C307.34 156.466 307.03 156.363 306.514 156.26C304.243 156.26 304.14 158.943 304.243 159.872C304.037 160.079 303.934 164.826 307.133 166.065ZM344.289 220.456C337.064 228.713 340.264 242.337 341.915 245.227C344.392 250.181 346.25 253.277 350.998 255.651C355.332 258.747 358.635 256.786 360.493 254.619C364.828 250.181 364.828 238.725 366.892 236.454C368.337 232.326 371.846 233.048 373.601 234.906C375.194 237.149 377.323 238.958 379.793 240.17C383.818 243.679 388.566 244.298 393.314 241.202C396.513 239.344 398.681 236.97 400.538 232.326C402.603 226.649 401.57 200.64 401.054 185.262C400.951 184.023 396.926 164.001 396.926 163.794C396.926 163.588 396.307 153.576 395.894 151.203C395.894 150.274 395.584 149.964 396.616 150.17C397.648 150.996 397.855 151.099 398.474 151.409C399.506 151.615 400.538 149.758 399.919 148.003L389.805 129.425C389.082 128.703 388.05 127.877 386.708 129.735C385.927 130.416 385.302 131.257 384.874 132.2C384.447 133.144 384.228 134.169 384.231 135.205C384.541 139.643 385.263 144.081 385.573 148.519L389.701 171.019C390.94 187.12 391.249 200.227 392.488 216.431C392.282 223.14 390.217 229.126 388.153 229.849C388.153 229.849 385.16 231.706 383.199 229.849C381.651 229.126 375.768 219.94 375.768 219.94C372.672 217.154 370.814 217.876 368.543 219.94C362.763 225.617 360.08 236.351 356.055 243.679C355.023 245.33 352.03 246.775 348.83 243.575C340.573 232.222 345.424 216.328 344.392 220.456H344.289ZM308.991 126.639C312.81 128.187 315.39 135.927 314.564 139.643C313.842 144.184 311.778 149.242 310.436 148.519C308.785 148.003 311.468 143.978 309.92 139.746C309.094 137.063 303.934 132.005 304.45 130.561C303.418 127.464 306.72 126.123 308.991 126.639Z" fill="white"/>
<path fill-rule="evenodd" clip-rule="evenodd" d="M356.571 224.998C357.294 215.709 355.952 210.136 355.745 204.769C355.539 199.402 349.553 158.324 348.521 154.196C346.973 146.455 354.197 153.164 353.372 148.622C350.895 142.946 344.805 134.689 342.844 129.838C341.709 127.774 342.122 125.813 339.541 129.219C337.313 135.357 336.536 141.928 337.271 148.416C343.463 180.721 349.759 207.555 348.727 238.312C351.72 238.312 355.126 231.603 356.571 224.895V224.998ZM420.974 139.643C424.483 141.398 426.444 150.996 426.135 153.68C425.412 158.737 423.554 164.001 422.213 163.381C420.871 162.762 422.522 155.95 421.8 153.886C421.077 150.893 416.433 145.526 416.846 143.875C415.917 140.572 418.91 139.127 420.974 139.746V139.643ZM165.323 207.555C168.626 208.897 170.483 215.812 170.174 217.876C169.555 221.592 167.8 225.514 166.561 225.101C165.22 224.585 166.768 219.631 166.149 218.083C165.839 214.264 161.298 212.303 161.401 210.755C160.575 207.659 163.362 207.142 165.323 207.659V207.555Z" fill="white"/>
<path fill-rule="evenodd" clip-rule="evenodd" d="M244.898 218.186C249.026 218.392 251.194 221.798 247.272 223.14C243.35 224.482 239.531 225.514 239.531 231.19C240.976 239.137 237.467 236.351 235.402 235.319C233.029 233.564 226.217 229.436 225.288 220.353C225.185 218.289 226.836 216.431 229.519 216.431C233.648 217.463 239.634 217.67 244.794 218.186H244.898Z" fill="#165D31"/>
<path fill-rule="evenodd" clip-rule="evenodd" d="M77.3879 124.368C82.2388 125.813 82.5484 132.934 82.1356 135.102C81.5163 138.921 79.7618 142.946 78.5232 142.43C77.1815 142.017 78.5232 136.856 77.904 135.205C77.1815 132.934 73.0531 128.806 73.5692 127.567C72.5371 125.09 75.4269 123.955 77.3879 124.471V124.368ZM173.27 158.014C169.554 160.079 168.11 166.065 170.38 169.574C172.548 172.67 175.953 171.535 176.47 171.535C180.082 171.948 182.249 164.62 182.249 164.62C182.249 164.62 182.353 162.556 178.121 166.478C176.263 166.787 176.057 166.168 175.541 165.136C175.101 163.194 175.318 161.161 176.16 159.356C176.779 157.602 175.334 156.776 173.27 158.014ZM201.137 121.581C199.382 122.923 195.563 126.742 195.46 131.18C195.46 133.657 194.944 133.657 196.492 135.308C197.731 136.96 198.969 136.856 201.343 135.618C201.934 135.235 202.44 134.735 202.831 134.15C203.221 133.564 203.488 132.904 203.614 132.212C204.233 129.322 200.621 133.554 200.208 130.354C199.382 127.464 201.653 126.226 203.82 123.336C203.82 121.375 203.82 120.033 201.24 121.581H201.137ZM223.74 125.71C222.84 129.33 222.287 133.028 222.088 136.753C221.469 139.54 224.978 140.675 226.63 137.063C229.003 130.561 229.003 127.774 229.21 124.987C228.487 120.859 225.597 120.859 223.74 125.606V125.71ZM365.653 197.853C366.066 197.337 385.676 183.404 385.676 183.404C387.637 182.785 387.224 190.629 386.295 190.629C380.239 196.499 373.267 201.345 365.653 204.975C364.621 205.594 363.692 199.608 365.653 197.75V197.853ZM383.406 197.75C386.811 199.402 388.256 209.516 387.844 212.2C387.947 217.567 384.541 221.798 383.199 221.076C381.754 220.456 383.302 214.47 382.683 212.406C381.961 209.413 378.968 203.84 379.484 202.291C378.451 198.886 381.341 197.131 383.406 197.75ZM267.398 241.098C268.739 239.034 272.868 236.248 272.971 236.248C274.932 235.215 276.79 236.97 276.686 236.867C276.996 238.828 275.448 240.582 275.964 243.163C276.377 244.195 276.686 245.33 278.647 244.917C281.744 242.543 284.634 242.337 287.73 242.131C290.104 242.337 290.104 246.259 288.659 246.362C282.879 247.601 280.402 249.149 276.274 250.697C274.313 251.832 272.661 250.387 272.661 250.284C272.661 250.181 271.629 249.149 272.352 246.569C272.455 244.504 271.629 243.472 269.978 243.679C268.636 244.298 267.501 244.711 266.881 243.266C266.572 242.234 266.572 241.718 267.398 241.098ZM403.944 246.465C404.77 247.497 405.389 248.53 403.944 250.284L400.229 253.38C399.506 254.619 399.197 256.27 401.158 256.786C404.77 257.818 413.233 252.348 413.233 252.245C414.575 251.213 414.162 249.252 413.956 249.252C413.233 248.323 411.375 248.839 410.24 248.736C409.621 248.736 407.763 248.426 408.589 246.775C409.415 245.743 409.621 245.124 410.137 243.782C410.756 242.543 410.24 241.718 408.176 240.995C406.112 240.686 405.286 240.892 403.015 240.995C401.674 241.305 401.261 241.821 400.951 243.369C401.158 245.64 402.499 245.536 404.048 246.465H403.944Z" fill="white"/>
<path fill-rule="evenodd" clip-rule="evenodd" d="M268.12 189.7C267.604 190.732 265.746 190.629 263.992 189.7C262.237 188.771 261.411 187.12 261.927 186.191C262.444 185.262 264.301 185.262 266.056 186.191C267.81 187.12 268.636 188.771 268.12 189.7ZM179.05 136.237C178.018 136.547 176.676 135.618 176.057 134.173C175.437 132.728 175.747 131.593 176.779 131.283C177.811 130.974 179.153 132.006 179.772 133.348C180.392 134.689 180.082 136.031 179.05 136.237Z" fill="#165D31"/>
<path fill-rule="evenodd" clip-rule="evenodd" d="M355.229 374.962C364.518 375.375 373.394 375.065 382.683 375.581C384.438 376.923 383.199 380.535 382.064 380.226L374.22 380.019C374.22 377.026 366.479 377.542 366.789 380.122C362.66 380.638 358.945 380.019 354.816 379.813C353.578 378.265 353.784 375.581 355.229 374.962Z" fill="#165D31"/>
</g>
</g>
<defs>
<clipPath id="clip0_118_1846">
<rect width="512" height="512" rx="256" fill="white"/>
</clipPath>
</defs>
</svg>
