<svg width="16" height="16" viewBox="0 0 16 16" fill="none" xmlns="http://www.w3.org/2000/svg">
<g opacity="0.45" clip-path="url(#clip0_58_226)">
<path d="M13.625 1.875H11.2812V1.40625C11.2812 0.630844 10.6504 0 9.875 0H6.125C5.34959 0 4.71875 0.630844 4.71875 1.40625V1.875H2.375C1.59959 1.875 0.96875 2.50584 0.96875 3.28125C0.96875 3.904 1.37578 4.43316 1.93766 4.61753L2.77375 14.7105C2.83397 15.4336 3.44953 16 4.17513 16H11.8249C12.5505 16 13.1661 15.4336 13.2263 14.7103L14.0623 4.6175C14.6242 4.43316 15.0312 3.904 15.0312 3.28125C15.0312 2.50584 14.4004 1.875 13.625 1.875ZM5.65625 1.40625C5.65625 1.14778 5.86653 0.9375 6.125 0.9375H9.875C10.1335 0.9375 10.3438 1.14778 10.3438 1.40625V1.875H5.65625V1.40625ZM12.292 14.6327C12.2719 14.8737 12.0667 15.0625 11.8249 15.0625H4.17513C3.93328 15.0625 3.72809 14.8737 3.70806 14.6329L2.88419 4.6875H13.1158L12.292 14.6327ZM13.625 3.75H2.375C2.11653 3.75 1.90625 3.53972 1.90625 3.28125C1.90625 3.02278 2.11653 2.8125 2.375 2.8125H13.625C13.8835 2.8125 14.0938 3.02278 14.0938 3.28125C14.0938 3.53972 13.8835 3.75 13.625 3.75Z" fill="#242424"/>
<path d="M6.12407 13.6273L5.65532 6.06477C5.63929 5.80636 5.41563 5.60983 5.15848 5.62592C4.90007 5.64195 4.7036 5.86439 4.7196 6.12277L5.18835 13.6853C5.20376 13.9338 5.41013 14.125 5.65576 14.125C5.92723 14.125 6.14073 13.8964 6.12407 13.6273Z" fill="#242424"/>
<path d="M8 5.625C7.74112 5.625 7.53125 5.83487 7.53125 6.09375V13.6562C7.53125 13.9151 7.74112 14.125 8 14.125C8.25888 14.125 8.46875 13.9151 8.46875 13.6562V6.09375C8.46875 5.83487 8.25888 5.625 8 5.625Z" fill="#242424"/>
<path d="M10.8414 5.62592C10.5836 5.60988 10.3606 5.80635 10.3446 6.06476L9.87585 13.6273C9.85988 13.8856 10.0563 14.1081 10.3147 14.1241C10.5733 14.1401 10.7956 13.9435 10.8116 13.6853L11.2803 6.12276C11.2963 5.86435 11.0998 5.64192 10.8414 5.62592Z" fill="#242424"/>
</g>
<defs>
<clipPath id="clip0_58_226">
<rect width="16" height="16" fill="white"/>
</clipPath>
</defs>
</svg>
