<svg width="14" height="16" viewBox="0 0 14 16" fill="none" xmlns="http://www.w3.org/2000/svg">
<path d="M8.33337 15.6665H2.33337C1.20004 15.6665 0.333374 14.7998 0.333374 13.6665V5.6665C0.333374 4.53317 1.20004 3.6665 2.33337 3.6665H8.33337C9.46671 3.6665 10.3334 4.53317 10.3334 5.6665V13.6665C10.3334 14.7998 9.46671 15.6665 8.33337 15.6665ZM2.33337 4.99984C1.93337 4.99984 1.66671 5.2665 1.66671 5.6665V13.6665C1.66671 14.0665 1.93337 14.3332 2.33337 14.3332H8.33337C8.73337 14.3332 9.00004 14.0665 9.00004 13.6665V5.6665C9.00004 5.2665 8.73337 4.99984 8.33337 4.99984H2.33337Z" fill="#242424"/>
<path d="M11.6667 12.3333H9.66675C9.26675 12.3333 9.00008 12.0666 9.00008 11.6666C9.00008 11.2666 9.26675 10.9999 9.66675 10.9999H11.6667C12.0667 10.9999 12.3334 10.7333 12.3334 10.3333V2.33325C12.3334 1.93325 12.0667 1.66659 11.6667 1.66659H5.66675C5.26675 1.66659 5.00008 1.93325 5.00008 2.33325V4.33325C5.00008 4.73325 4.73341 4.99992 4.33341 4.99992C3.93341 4.99992 3.66675 4.73325 3.66675 4.33325V2.33325C3.66675 1.19992 4.53341 0.333252 5.66675 0.333252H11.6667C12.8001 0.333252 13.6667 1.19992 13.6667 2.33325V10.3333C13.6667 11.4666 12.8001 12.3333 11.6667 12.3333Z" fill="#242424"/>
</svg>
