<svg width="22" height="22" viewBox="0 0 22 22" fill="none" xmlns="http://www.w3.org/2000/svg">
<path d="M4.92407 21.5553C4.68303 21.5553 4.44368 21.4801 4.2394 21.3324C3.85889 21.0566 3.68113 20.5826 3.78469 20.1252L5.20001 13.8907L0.400148 9.68131C0.0473249 9.37331 -0.0874594 8.88553 0.057396 8.43922C0.202251 7.99374 0.596366 7.67835 1.06299 7.63521L7.4138 7.05864L9.92468 1.18268C10.1098 0.750968 10.5315 0.472168 10.9999 0.472168C11.4684 0.472168 11.8901 0.750968 12.0752 1.18167L14.5861 7.05864L20.9359 7.63521C21.4035 7.67734 21.7976 7.99374 21.9425 8.43922C22.0873 8.88469 21.9534 9.37331 21.6006 9.68131L16.8007 13.8898L18.216 20.1242C18.3198 20.5826 18.1418 21.0566 17.7615 21.3315C17.382 21.6065 16.8759 21.6276 16.4762 21.3874L10.9999 18.1148L5.52363 21.3893C5.33849 21.4992 5.1322 21.5553 4.92407 21.5553ZM10.9999 16.705C11.2081 16.705 11.4142 16.7609 11.5995 16.8709L16.7678 19.962L15.432 14.0777C15.3367 13.6589 15.4789 13.2216 15.8025 12.9383L20.3346 8.96358L14.3385 8.41907C13.9068 8.37963 13.5355 8.10821 13.3668 7.71041L10.9999 2.16528L8.63022 7.71125C8.46337 8.10637 8.09209 8.37778 7.66138 8.41723L1.6644 8.96174L6.19638 12.9364C6.521 13.2206 6.663 13.657 6.56682 14.0768L5.23207 19.961L10.4004 16.8709C10.5855 16.7609 10.7918 16.705 10.9999 16.705ZM7.36529 7.17228C7.36529 7.17228 7.36529 7.17328 7.36429 7.17412L7.36529 7.17228ZM14.6327 7.16959L14.6337 7.17144C14.6337 7.17043 14.6337 7.17043 14.6327 7.16959Z" fill="#25C06D"/>
</svg>
