<svg width="22" height="22" viewBox="0 0 22 22" fill="none" xmlns="http://www.w3.org/2000/svg">
<g clip-path="url(#clip0_55_583)">
<path d="M11.0136 15.5833C8.48633 15.5833 6.43021 13.5272 6.43021 10.9999C6.43021 8.47263 8.48633 6.4165 11.0136 6.4165C13.5407 6.4165 15.5968 8.47263 15.5968 10.9999C15.5968 13.5272 13.5407 15.5833 11.0136 15.5833ZM11.0136 7.7915C9.24432 7.7915 7.80521 9.23079 7.80521 10.9999C7.80521 12.769 9.24432 14.2083 11.0136 14.2083C12.7827 14.2083 14.2218 12.769 14.2218 10.9999C14.2218 9.23079 12.7827 7.7915 11.0136 7.7915Z" fill="#25C06D"/>
<path d="M12.538 22H9.48904C8.75572 22 8.10766 21.4793 7.94821 20.7616L7.56233 19.0456C6.93341 18.7789 6.33386 18.4306 5.77107 18.0052L4.09999 18.5331C3.38311 18.7559 2.60397 18.4516 2.24461 17.8099L0.724926 15.1819C0.360867 14.531 0.483731 13.7299 1.01916 13.2256L2.31427 12.0349C2.27499 11.6857 2.25569 11.3392 2.25569 11C2.25569 10.6608 2.27499 10.3143 2.31343 9.96506L1.02554 8.77989C0.483731 8.27014 0.360028 7.46901 0.720227 6.82649L2.24931 4.1819C2.60397 3.54744 3.38496 3.24599 4.0973 3.46503L5.77107 3.99391C6.33386 3.56859 6.93341 3.22031 7.56233 2.95343L7.94905 1.23569C8.10766 0.52066 8.75572 0 9.48904 0H12.538C13.2713 0 13.9194 0.52066 14.0788 1.23837L14.4647 2.95444C15.0936 3.22115 15.6932 3.56943 16.2559 3.99475L17.927 3.46687C18.6458 3.24599 19.423 3.54845 19.7824 4.19012L21.3023 6.8181C21.6662 7.46901 21.5433 8.27014 21.0079 8.77435L19.7128 9.96506C19.7512 10.3143 19.7705 10.6618 19.7705 11C19.7705 11.3382 19.7512 11.6857 19.7128 12.0349L21.0015 13.2193C21.0033 13.2211 21.0052 13.223 21.0079 13.2248C21.5433 13.7289 21.667 14.5302 21.3068 15.1727L19.7777 17.8173C19.423 18.4516 18.6439 18.755 17.9289 18.5331L16.2549 18.0042C15.6922 18.4296 15.0926 18.7778 14.4639 19.0447L14.077 20.7625C13.9194 21.4793 13.2713 22 12.538 22ZM5.91139 16.554C6.069 16.554 6.22392 16.6081 6.34863 16.7108C6.97839 17.2288 7.66488 17.6284 8.39183 17.8961C8.61087 17.9767 8.77318 18.1629 8.82454 18.3901L9.29115 20.4619C9.31213 20.5572 9.39555 20.625 9.49005 20.625H12.5388C12.6333 20.625 12.7167 20.5572 12.7369 20.4637L13.2043 18.3901C13.2557 18.1629 13.418 17.9767 13.637 17.8961C14.363 17.6284 15.0505 17.2288 15.6802 16.7108C15.86 16.5623 16.1019 16.5146 16.3248 16.5853L18.3423 17.2224C18.4385 17.2526 18.5412 17.2169 18.5852 17.138L20.1142 14.4934C20.1601 14.4118 20.1434 14.3 20.0703 14.2285L18.5229 12.8059C18.355 12.6518 18.2745 12.4235 18.3084 12.1981C18.3688 11.7921 18.3992 11.3887 18.3992 10.9992C18.3992 10.6094 18.3688 10.2061 18.3084 9.80006C18.2745 9.57465 18.355 9.34721 18.5229 9.19229L20.0738 7.76593C20.1434 7.70097 20.1601 7.58717 20.1095 7.49654L18.5897 4.86839C18.5403 4.78128 18.4358 4.74654 18.3404 4.77675L16.3256 5.41289C16.1037 5.48355 15.8618 5.43588 15.6812 5.28734C15.0515 4.76936 14.3648 4.36972 13.6379 4.10201C13.4188 4.02144 13.2565 3.8353 13.2053 3.60803L12.7387 1.5363C12.7157 1.44281 12.6323 1.375 12.538 1.375H9.48904C9.39471 1.375 9.31129 1.44281 9.29115 1.5363L8.82353 3.60988C8.77234 3.83714 8.61003 4.02228 8.39099 4.10385C7.66488 4.37157 6.97738 4.77121 6.34863 5.28918C6.16803 5.43773 5.92415 5.48439 5.70427 5.41473L3.68658 4.77759C3.59225 4.74838 3.48768 4.78313 3.44371 4.86201L1.91462 7.5056C1.8688 7.58818 1.88542 7.70181 1.96145 7.77332L3.50699 9.1933C3.67466 9.34721 3.7554 9.57549 3.72149 9.80107C3.6609 10.2071 3.63069 10.6104 3.63069 11C3.63069 11.3896 3.6609 11.7929 3.72149 12.1989C3.7554 12.4245 3.67466 12.6518 3.50699 12.8067L1.95591 14.2331C1.88626 14.2982 1.86981 14.4118 1.92016 14.5026L3.44001 17.1306C3.48852 17.2177 3.59309 17.2516 3.68927 17.2224L5.70427 16.5861C5.77208 16.5641 5.84173 16.554 5.91139 16.554Z" fill="#25C06D"/>
</g>
<defs>
<clipPath id="clip0_55_583">
<rect width="22" height="22" fill="white"/>
</clipPath>
</defs>
</svg>
