<svg width="22" height="22" viewBox="0 0 22 22" fill="none" xmlns="http://www.w3.org/2000/svg">
<g opacity="0.25" clip-path="url(#clip0_44_56)">
<path d="M11.0136 15.5833C8.4863 15.5833 6.43018 13.5272 6.43018 10.9999C6.43018 8.47263 8.4863 6.4165 11.0136 6.4165C13.5407 6.4165 15.5968 8.47263 15.5968 10.9999C15.5968 13.5272 13.5407 15.5833 11.0136 15.5833ZM11.0136 7.7915C9.24429 7.7915 7.80518 9.23079 7.80518 10.9999C7.80518 12.769 9.24429 14.2083 11.0136 14.2083C12.7827 14.2083 14.2218 12.769 14.2218 10.9999C14.2218 9.23079 12.7827 7.7915 11.0136 7.7915Z" fill="black"/>
<path d="M12.538 22H9.48906C8.75573 22 8.10768 21.4793 7.94822 20.7616L7.56234 19.0456C6.93342 18.7789 6.33387 18.4306 5.77108 18.0052L4.1 18.5331C3.38313 18.7559 2.60399 18.4516 2.24463 17.8099L0.724942 15.1819C0.360882 14.531 0.483746 13.7299 1.01918 13.2256L2.31428 12.0349C2.27501 11.6857 2.2557 11.3392 2.2557 11C2.2557 10.6608 2.27501 10.3143 2.31344 9.96506L1.02556 8.77989C0.483746 8.27014 0.360043 7.46901 0.720242 6.82649L2.24933 4.1819C2.60399 3.54744 3.38498 3.24599 4.09732 3.46503L5.77108 3.99391C6.33387 3.56859 6.93342 3.22031 7.56234 2.95343L7.94906 1.23569C8.10768 0.52066 8.75573 0 9.48906 0H12.538C13.2713 0 13.9194 0.52066 14.0788 1.23837L14.4647 2.95444C15.0936 3.22115 15.6932 3.56943 16.256 3.99475L17.927 3.46687C18.6458 3.24599 19.4231 3.54845 19.7824 4.19012L21.3023 6.8181C21.6662 7.46901 21.5433 8.27014 21.0079 8.77435L19.7128 9.96506C19.7512 10.3143 19.7705 10.6618 19.7705 11C19.7705 11.3382 19.7512 11.6857 19.7128 12.0349L21.0015 13.2193C21.0033 13.2211 21.0052 13.223 21.0079 13.2248C21.5433 13.7289 21.667 14.5302 21.3068 15.1727L19.7777 17.8173C19.4231 18.4516 18.6439 18.755 17.9289 18.5331L16.255 18.0042C15.6922 18.4296 15.0926 18.7778 14.4639 19.0447L14.077 20.7625C13.9194 21.4793 13.2713 22 12.538 22ZM5.9114 16.554C6.06901 16.554 6.22394 16.6081 6.34865 16.7108C6.97841 17.2288 7.6649 17.6284 8.39184 17.8961C8.61088 17.9767 8.77319 18.1629 8.82455 18.3901L9.29117 20.4619C9.31215 20.5572 9.39557 20.625 9.49006 20.625H12.5388C12.6333 20.625 12.7167 20.5572 12.7369 20.4637L13.2043 18.3901C13.2557 18.1629 13.418 17.9767 13.6371 17.8961C14.363 17.6284 15.0505 17.2288 15.6803 16.7108C15.86 16.5623 16.1019 16.5146 16.3248 16.5853L18.3423 17.2224C18.4385 17.2526 18.5412 17.2169 18.5852 17.138L20.1143 14.4934C20.1601 14.4118 20.1435 14.3 20.0703 14.2285L18.5229 12.8059C18.3551 12.6518 18.2745 12.4235 18.3084 12.1981C18.3688 11.7921 18.3992 11.3887 18.3992 10.9992C18.3992 10.6094 18.3688 10.2061 18.3084 9.80006C18.2745 9.57465 18.3551 9.34721 18.5229 9.19229L20.0738 7.76593C20.1435 7.70097 20.1601 7.58717 20.1096 7.49654L18.5897 4.86839C18.5404 4.78128 18.4358 4.74654 18.3405 4.77675L16.3256 5.41289C16.1037 5.48355 15.8619 5.43588 15.6813 5.28734C15.0515 4.76936 14.3648 4.36972 13.6379 4.10201C13.4189 4.02144 13.2565 3.8353 13.2054 3.60803L12.7387 1.5363C12.7157 1.44281 12.6323 1.375 12.538 1.375H9.48906C9.39473 1.375 9.31131 1.44281 9.29117 1.5363L8.82354 3.60988C8.77235 3.83714 8.61004 4.02228 8.391 4.10385C7.6649 4.37157 6.9774 4.77121 6.34865 5.28918C6.16804 5.43773 5.92416 5.48439 5.70428 5.41473L3.6866 4.77759C3.59227 4.74838 3.4877 4.78313 3.44372 4.86201L1.91464 7.5056C1.86882 7.58818 1.88543 7.70181 1.96147 7.77332L3.507 9.1933C3.67468 9.34721 3.75541 9.57549 3.72151 9.80107C3.66092 10.2071 3.6307 10.6104 3.6307 11C3.6307 11.3896 3.66092 11.7929 3.72151 12.1989C3.75541 12.4245 3.67468 12.6518 3.507 12.8067L1.95593 14.2331C1.88627 14.2982 1.86982 14.4118 1.92018 14.5026L3.44003 17.1306C3.48854 17.2177 3.59311 17.2516 3.68928 17.2224L5.70428 16.5861C5.77209 16.5641 5.84175 16.554 5.9114 16.554Z" fill="black"/>
</g>
<defs>
<clipPath id="clip0_44_56">
<rect width="22" height="22" fill="white"/>
</clipPath>
</defs>
</svg>
