<svg width="24" height="24" viewBox="0 0 24 24" fill="none" xmlns="http://www.w3.org/2000/svg">
<path d="M14.8235 14.9583C14.8235 16.126 15.7735 17.0759 16.9411 17.0759H19.9705C20.2467 17.0759 20.4705 16.8521 20.4705 16.5759V16.1641C20.4705 15.888 20.2467 15.6641 19.9705 15.6641H16.9411C16.5519 15.6641 16.2353 15.3475 16.2353 14.9583C16.2353 14.569 16.5519 14.2524 16.9411 14.2524H19.2647C19.5408 14.2524 19.7647 14.0285 19.7647 13.7524V13.3406C19.7647 13.0645 19.5408 12.8406 19.2647 12.8406H18.3529C17.9637 12.8406 17.647 12.524 17.647 12.1347C17.647 11.7455 17.9637 11.4289 18.3529 11.4289H19.2647C19.5408 11.4289 19.7647 11.205 19.7647 10.9289V10.5171C19.7647 10.2409 19.5408 10.0171 19.2647 10.0171H18.3529C17.1852 10.0171 16.2353 10.9671 16.2353 12.1347C16.2353 12.2156 16.2399 12.2955 16.2488 12.374C16.2826 12.6705 16.1279 12.9809 15.8707 13.1321C15.2446 13.5003 14.8235 14.1809 14.8235 14.9583Z" fill="#25C06D"/>
<path d="M6.72941 4.37012C5.17252 4.37012 3.90588 5.63675 3.90588 7.19365V10.9289C3.90588 11.2051 4.12974 11.4289 4.40588 11.4289H4.81765C5.09379 11.4289 5.31765 11.2051 5.31765 10.9289V9.8113C5.31765 9.53515 5.54151 9.3113 5.81765 9.3113H7.64118C7.91732 9.3113 8.14118 9.53515 8.14118 9.8113V10.9289C8.14118 11.2051 8.36504 11.4289 8.64118 11.4289H9.05294C9.32909 11.4289 9.55294 11.2051 9.55294 10.9289V7.19365C9.55294 5.63675 8.28631 4.37012 6.72941 4.37012ZM5.81765 7.89953C5.54151 7.89953 5.31765 7.67567 5.31765 7.39953V7.19365C5.31765 6.4152 5.95097 5.78188 6.72941 5.78188C7.50786 5.78188 8.14118 6.4152 8.14118 7.19365V7.39953C8.14118 7.67567 7.91732 7.89953 7.64118 7.89953H5.81765Z" fill="#25C06D"/>
<path d="M13.9118 7.19369C13.6356 7.19369 13.4118 6.96983 13.4118 6.69369V2.04663C13.4118 1.77049 13.1879 1.54663 12.9118 1.54663H0.5C0.223857 1.54663 0 1.77049 0 2.04663V13.7525C0 14.0287 0.223858 14.2525 0.5 14.2525H3.02941C3.30555 14.2525 3.52941 14.4764 3.52941 14.7525V15.9974C3.52941 16.3691 3.92057 16.6109 4.25302 16.4446L8.53165 14.3053C8.60108 14.2706 8.67764 14.2525 8.75526 14.2525H10.0882C10.3644 14.2525 10.5882 14.4764 10.5882 14.7525V19.3996C10.5882 19.6757 10.8121 19.8996 11.0882 19.8996H15.2447C15.3224 19.8996 15.3989 19.9176 15.4684 19.9524L19.747 22.0917C20.0794 22.2579 20.4706 22.0161 20.4706 21.6444V20.3995C20.4706 20.1234 20.6944 19.8995 20.9706 19.8995H23.5C23.7761 19.8995 24 19.6757 24 19.3995V7.69365C24 7.4175 23.7761 7.19364 23.5 7.19364L13.9118 7.19369ZM8.42199 12.8407C8.34436 12.8407 8.26781 12.8588 8.19838 12.8935L5.66478 14.1603C5.33233 14.3265 4.94118 14.0848 4.94118 13.7131V13.3407C4.94118 13.0646 4.71732 12.8407 4.44118 12.8407H1.91177C1.63562 12.8407 1.41176 12.6169 1.41176 12.3407V3.4584C1.41176 3.18225 1.63562 2.9584 1.91176 2.9584H11.5C11.7761 2.9584 12 3.18225 12 3.4584V12.3407C12 12.6169 11.7761 12.8407 11.5 12.8407H8.42199ZM22.5882 17.9878C22.5882 18.264 22.3644 18.4878 22.0882 18.4878H19.5588C19.2827 18.4878 19.0588 18.7117 19.0588 18.9878V19.3602C19.0588 19.7319 18.6677 19.9736 18.3352 19.8074L15.8016 18.5406C15.7322 18.5059 15.6556 18.4878 15.578 18.4878H12.5C12.2239 18.4878 12 18.264 12 17.9878V14.7525C12 14.4764 12.2239 14.2525 12.5 14.2525H12.9118C13.1879 14.2525 13.4118 14.0287 13.4118 13.7525V9.10545C13.4118 8.82931 13.6356 8.60546 13.9118 8.60546H22.0882C22.3644 8.60546 22.5882 8.82931 22.5882 9.10546V17.9878Z" fill="#25C06D"/>
</svg>
