<svg width="20" height="20" viewBox="0 0 20 20" fill="none" xmlns="http://www.w3.org/2000/svg">
<path d="M10 3.74998C11.657 3.75188 13.2456 4.41097 14.4173 5.58266C15.589 6.75435 16.2481 8.34296 16.25 9.99998C16.25 10.1657 16.3158 10.3247 16.4331 10.4419C16.5503 10.5591 16.7092 10.625 16.875 10.625C17.0408 10.625 17.1997 10.5591 17.3169 10.4419C17.4342 10.3247 17.5 10.1657 17.5 9.99998C17.5006 8.43433 17.0109 6.90779 16.0999 5.63453C15.1888 4.36127 13.9019 3.40519 12.4199 2.90044C10.9378 2.39568 9.33493 2.36756 7.83609 2.82004C6.33725 3.27252 5.01767 4.18289 4.0625 5.42342V4.25967C4.0625 4.09391 3.99665 3.93493 3.87944 3.81772C3.76223 3.70051 3.60326 3.63467 3.4375 3.63467C3.27174 3.63467 3.11277 3.70051 2.99556 3.81772C2.87835 3.93493 2.8125 4.09391 2.8125 4.25967V7.15623C2.8125 7.32199 2.87835 7.48096 2.99556 7.59817C3.11277 7.71538 3.27174 7.78123 3.4375 7.78123H6.33219C6.49795 7.78123 6.65692 7.71538 6.77413 7.59817C6.89134 7.48096 6.95719 7.32199 6.95719 7.15623C6.95719 6.99047 6.89134 6.8315 6.77413 6.71429C6.65692 6.59708 6.49795 6.53123 6.33219 6.53123H4.80625C5.37701 5.67679 6.14943 4.97608 7.05527 4.49101C7.9611 4.00593 8.97246 3.75143 10 3.74998Z" fill="#25C06D"/>
<path d="M10 17.5C11.1472 17.4984 12.2788 17.2342 13.3081 16.7274C14.3373 16.2206 15.2368 15.4849 15.9375 14.5766V15.7403C15.9375 15.9061 16.0033 16.065 16.1206 16.1823C16.2378 16.2995 16.3967 16.3653 16.5625 16.3653C16.7283 16.3653 16.8872 16.2995 17.0044 16.1823C17.1217 16.065 17.1875 15.9061 17.1875 15.7403V12.8453C17.1875 12.6796 17.1217 12.5206 17.0044 12.4034C16.8872 12.2862 16.7283 12.2203 16.5625 12.2203H13.6678C13.5021 12.2203 13.3431 12.2862 13.2259 12.4034C13.1087 12.5206 13.0428 12.6796 13.0428 12.8453C13.0428 13.0111 13.1087 13.17 13.2259 13.2873C13.3431 13.4045 13.5021 13.4703 13.6678 13.4703H15.1937C14.4495 14.5856 13.3662 15.4319 12.1039 15.8841C10.8417 16.3363 9.46738 16.3703 8.18426 15.9812C6.90113 15.5921 5.77724 14.8005 4.97871 13.7234C4.18018 12.6463 3.74938 11.3408 3.75 10C3.75 9.83424 3.68415 9.67527 3.56694 9.55806C3.44973 9.44085 3.29076 9.375 3.125 9.375C2.95924 9.375 2.80027 9.44085 2.68306 9.55806C2.56585 9.67527 2.5 9.83424 2.5 10C2.50223 11.9884 3.29313 13.8948 4.69917 15.3008C6.1052 16.7069 8.01156 17.4978 10 17.5Z" fill="#25C06D"/>
</svg>
