<svg width="20" height="20" viewBox="0 0 20 20" fill="none" xmlns="http://www.w3.org/2000/svg">
<g clip-path="url(#clip0_30_46)">
<path d="M0.472188 6.95653C0.165859 7.91622 -3.90556e-05 8.9386 6.89667e-09 9.99989C-3.90556e-05 11.0612 0.165898 12.0837 0.472227 13.0434L10 13.4782L19.5278 13.0434C19.8341 12.0837 20 11.0612 20 9.99997C20 8.93864 19.8341 7.91622 19.5278 6.95649L10 6.52173L0.472188 6.95653Z" fill="#F0F0F0"/>
<path d="M19.5277 6.95662L9.99994 6.52185L0.472124 6.95662C0.381343 7.24115 0.303179 7.53127 0.237671 7.82619H19.762C19.6966 7.53123 19.6185 7.24107 19.5277 6.95662Z" fill="#D80027"/>
<path d="M0.237793 12.174C0.303223 12.4689 0.381387 12.759 0.472168 13.0435L0.473105 13.0435L9.9999 13.4783L19.5277 13.0435C19.6185 12.759 19.6966 12.4689 19.7621 12.174H0.237793Z" fill="#D80027"/>
<path d="M9.9999 20C14.4615 20 18.24 17.078 19.5277 13.0435H0.472168C1.75986 17.0779 5.53846 20 9.9999 20Z" fill="#6DA544"/>
<path d="M9.99994 3.91644e-10C5.53846 3.90629e-05 1.75994 2.92203 0.472168 6.95652L19.5277 6.95656C18.2401 2.92199 14.4615 -3.90621e-05 9.99994 3.91644e-10Z" fill="#338AF3"/>
<path d="M4.56972 4.13056C4.56972 3.19395 5.22796 2.41153 6.10698 2.21958C5.9719 2.19005 5.83171 2.17407 5.68772 2.17407C4.60718 2.17407 3.7312 3.05001 3.7312 4.1306C3.7312 5.21118 4.6071 6.08712 5.68772 6.08712C5.83171 6.08712 5.97187 6.0711 6.10698 6.04161C5.228 5.84958 4.56972 5.06716 4.56972 4.13056Z" fill="#F0F0F0"/>
<path d="M7.26336 5.0199L7.39579 5.42751H7.82438L7.47766 5.67947L7.61008 6.08708L7.26336 5.83517L6.91657 6.08708L7.04903 5.67947L6.70227 5.42751H7.13086L7.26336 5.0199Z" fill="#F0F0F0"/>
<path d="M8.63133 5.0199L8.76379 5.42751H9.19238L8.84562 5.67947L8.97809 6.08708L8.63133 5.83517L8.28457 6.08708L8.41703 5.67947L8.07031 5.42751H8.49887L8.63133 5.0199Z" fill="#F0F0F0"/>
<path d="M9.99933 5.0199L10.1317 5.42751H10.5604L10.2136 5.67947L10.346 6.08708L9.99933 5.83517L9.65253 6.08708L9.78503 5.67947L9.43823 5.42751H9.86686L9.99933 5.0199Z" fill="#F0F0F0"/>
<path d="M11.3674 5.0199L11.4998 5.42751H11.9284L11.5817 5.67947L11.7141 6.08708L11.3674 5.83517L11.0206 6.08708L11.1531 5.67947L10.8063 5.42751H11.2349L11.3674 5.0199Z" fill="#F0F0F0"/>
<path d="M12.7353 5.0199L12.8678 5.42751H13.2964L12.9497 5.67947L13.0821 6.08708L12.7353 5.83517L12.3886 6.08708L12.521 5.67947L12.1743 5.42751H12.6029L12.7353 5.0199Z" fill="#F0F0F0"/>
<path d="M8.63133 3.59692L8.76379 4.0045H9.19238L8.84562 4.25649L8.97809 4.66407L8.63133 4.41216L8.28457 4.66407L8.41703 4.25649L8.07031 4.0045H8.49887L8.63133 3.59692Z" fill="#F0F0F0"/>
<path d="M9.99933 3.59692L10.1317 4.0045H10.5604L10.2136 4.25649L10.346 4.66407L9.99933 4.41216L9.65253 4.66407L9.78503 4.25649L9.43823 4.0045H9.86686L9.99933 3.59692Z" fill="#F0F0F0"/>
<path d="M11.3674 3.59692L11.4998 4.0045H11.9284L11.5817 4.25649L11.7141 4.66407L11.3674 4.41216L11.0206 4.66407L11.1531 4.25649L10.8063 4.0045H11.2349L11.3674 3.59692Z" fill="#F0F0F0"/>
<path d="M12.7353 3.59692L12.8678 4.0045H13.2964L12.9497 4.25649L13.0821 4.66407L12.7353 4.41216L12.3886 4.66407L12.521 4.25649L12.1743 4.0045H12.6029L12.7353 3.59692Z" fill="#F0F0F0"/>
<path d="M9.99933 2.17395L10.1317 2.58161H10.5604L10.2136 2.83352L10.346 3.24118L9.99933 2.98926L9.65253 3.24118L9.78503 2.83352L9.43823 2.58161H9.86686L9.99933 2.17395Z" fill="#F0F0F0"/>
<path d="M11.3674 2.17395L11.4998 2.58161H11.9284L11.5817 2.83352L11.7141 3.24118L11.3674 2.98926L11.0206 3.24118L11.1531 2.83352L10.8063 2.58161H11.2349L11.3674 2.17395Z" fill="#F0F0F0"/>
<path d="M12.7353 2.17395L12.8678 2.58161H13.2964L12.9497 2.83352L13.0821 3.24118L12.7353 2.98926L12.3886 3.24118L12.521 2.83352L12.1743 2.58161H12.6029L12.7353 2.17395Z" fill="#F0F0F0"/>
</g>
<defs>
<clipPath id="clip0_30_46">
<rect width="20" height="20" fill="white"/>
</clipPath>
</defs>
</svg>
